<svg id="Layer_1" data-name="Layer 1" xmlns="http://www.w3.org/2000/svg" viewBox="0 0 206.9 180.62"><defs><style>.cls-1{fill:#010101;}</style></defs><path class="cls-1" d="M45.07,135.56l45.07,45.06,6.52-6.53,6.52-6.52L64.45,128.85,25.73,90.13,64.38,51.51,103,12.88,96.57,6.44,90.14,0,45.07,45.06C20.28,69.85,0,90.21,0,90.31S20.28,110.77,45.07,135.56Zm103.72,0,45.07,45.06,6.52-6.53,6.52-6.52-38.72-38.72L129.45,90.13,168.1,51.51l38.62-38.63-6.43-6.44L193.86,0,148.79,45.06C124,69.85,103.72,90.21,103.72,90.31S124,110.77,148.79,135.56Z" transform="translate(0)"/></svg>
