<svg id="Layer_1" data-name="Layer 1" xmlns="http://www.w3.org/2000/svg" viewBox="0 0 206.9 180.63"><defs><style>.cls-1{fill:#010101;}</style></defs><path class="cls-1" d="M364.38,350.75l-45.07-45.06-6.52,6.53-6.52,6.52L345,357.46l38.72,38.72L345.07,434.8l-38.63,38.63,6.44,6.44,6.43,6.44,45.07-45.06c24.79-24.79,45.07-45.15,45.07-45.25S389.17,375.54,364.38,350.75Zm-103.72,0-45.07-45.06-6.52,6.53-6.52,6.52,38.72,38.72L280,396.18,241.35,434.8l-38.62,38.63,6.43,6.44,6.43,6.44,45.07-45.06c24.79-24.79,45.07-45.15,45.07-45.25s-20.28-20.46-45.07-45.25Z" transform="translate(-202.55 -305.69)"/></svg>
